<svg xmlns="http://www.w3.org/2000/svg" width="104.958" height="108.69" viewBox="0 0 104.958 108.69"><defs><style>.a{fill:#fa8c16;}.b{fill:#0ce20c;}.c{fill:#f1f2f2;}</style></defs><g transform="translate(-8.453 0.001)"><path class="a" d="M343.179,263.2a7.5,7.5,0,0,0-7.5,7.5v1.876h15.009v-1.876A7.5,7.5,0,0,0,343.179,263.2Z" transform="translate(-250.406 -201.417)"/><path class="a" d="M75.888,71.167h9.38V69.291a7.5,7.5,0,0,1,15.009,0v1.876h4.991A50.593,50.593,0,1,0,73.094,99.2l.806-8.179ZM19.605,50.53a39.4,39.4,0,0,1,78.8,0A39.4,39.4,0,1,0,59,89.929,39.4,39.4,0,0,1,19.605,50.53ZM70.917,44.9,62.756,36.76V78.672h-7.5V36.76L47.09,44.9,44.632,47.36,42.175,44.9l-2.852-2.833L59,22.389l19.681,19.68L75.833,44.9,73.375,47.36Z"/><path class="b" d="M312.864,303.163h-4.991v0H292.865v0h-9.38l-1.989,19.85-.806,8.18-.207,1.989-.75,7.5h41.274l-3.752-37.522Z" transform="translate(-207.596 -231.996)"/><path class="b" d="M179.318,115.055l-19.681-19.68-19.68,19.68,2.852,2.833,2.457,2.458,2.458-2.458,8.161-8.142v41.912h7.5V109.746l8.161,8.142,2.458,2.458,2.458-2.458Z" transform="translate(-100.633 -72.986)"/><path class="c" d="M344.568,273.973a1.876,1.876,0,0,1-1.876-1.876v-7.5a5.628,5.628,0,0,0-11.257,0v7.5a1.876,1.876,0,1,1-3.752,0v-7.5a9.381,9.381,0,0,1,18.761,0v7.5A1.876,1.876,0,0,1,344.568,273.973Z" transform="translate(-244.29 -195.301)"/><path class="c" d="M89.243,121.981a41.274,41.274,0,1,1,41.274-41.274,1.876,1.876,0,1,1-3.752,0,37.522,37.522,0,1,0-37.522,37.522,1.876,1.876,0,1,1,0,3.752Z" transform="translate(-30.24 -30.176)"/></g></svg>