<svg id="Layer_1" data-name="Layer 1" xmlns="http://www.w3.org/2000/svg" xmlns:xlink="http://www.w3.org/1999/xlink" viewBox="0 0 824 824"><defs><style>.cls-1{fill:url(#pattern);}.cls-2{fill:none;}.cls-3{fill:#fff;}.cls-4{fill:#408060;}.cls-5{fill:#c80000;}.cls-6{fill:#a8ace8;}.cls-7{fill:#e8c000;}.cls-8{fill:#d87c00;}.cls-9{mask:url(#mask);}.cls-10{fill:url(#linear-gradient);}</style><pattern id="pattern" data-name="pattern" width="8" height="8" patternTransform="matrix(1, 0, 0, -1, -2, 842.89)" patternUnits="userSpaceOnUse" viewBox="0 0 8 8"><rect class="cls-2" width="8" height="8"/><polygon class="cls-3" points="0 4 0 0 8 8 4 8 0 4"/><polygon class="cls-3" points="4 0 8 0 8 4 4 0"/></pattern><mask id="mask" x="0" y="0" width="824" height="824" maskUnits="userSpaceOnUse"><g id="grating"><rect class="cls-1" width="824" height="824"/></g></mask><linearGradient id="linear-gradient" x1="412" y1="824" x2="412" gradientUnits="userSpaceOnUse"><stop offset="0" stop-color="#fff"/><stop offset="0.49" stop-color="#fff" stop-opacity="0.1"/><stop offset="1" stop-color="#fff"/></linearGradient></defs><title>obrien</title><g id="horizStripes"><rect class="cls-4" width="824" height="48"/><rect class="cls-5" y="48" width="824" height="24"/><rect class="cls-4" y="72" width="824" height="96"/><rect class="cls-6" y="168" width="824" height="24"/><rect class="cls-4" y="192" width="824" height="16"/><rect class="cls-6" y="208" width="824" height="24"/><rect class="cls-4" y="232" width="824" height="48"/><rect class="cls-7" y="280" width="824" height="16"/><rect class="cls-4" y="296" width="824" height="24"/><rect class="cls-7" y="320" width="824" height="16"/><rect class="cls-4" y="336" width="824" height="48"/><rect class="cls-8" y="384" width="824" height="104"/><rect class="cls-4" y="488" width="824" height="48"/><rect class="cls-7" y="536" width="824" height="16"/><rect class="cls-4" y="552" width="824" height="24"/><rect class="cls-7" y="576" width="824" height="16"/><rect class="cls-4" y="592" width="824" height="48"/><rect class="cls-6" y="640" width="824" height="24"/><rect class="cls-4" y="664" width="824" height="16"/><rect class="cls-6" y="680" width="824" height="24"/><rect class="cls-4" y="704" width="824" height="96"/><rect class="cls-5" y="800" width="824" height="24"/></g><g class="cls-9"><g id="vertStripes"><rect class="cls-4" width="48" height="824"/><rect class="cls-5" x="48" width="24" height="824"/><rect class="cls-4" x="72" width="96" height="824"/><rect class="cls-6" x="168" width="24" height="824"/><rect class="cls-4" x="192" width="16" height="824"/><rect class="cls-6" x="208" width="24" height="824"/><rect class="cls-4" x="232" width="48" height="824"/><rect class="cls-7" x="280" width="16" height="824"/><rect class="cls-4" x="296" width="24" height="824"/><rect class="cls-7" x="320" width="16" height="824"/><rect class="cls-4" x="336" width="48" height="824"/><rect class="cls-8" x="384" width="104" height="824"/><rect class="cls-4" x="488" width="48" height="824"/><rect class="cls-7" x="536" width="16" height="824"/><rect class="cls-4" x="552" width="24" height="824"/><rect class="cls-7" x="576" width="16" height="824"/><rect class="cls-4" x="592" width="48" height="824"/><rect class="cls-6" x="640" width="24" height="824"/><rect class="cls-4" x="664" width="16" height="824"/><rect class="cls-6" x="680" width="24" height="824"/><rect class="cls-4" x="704" width="96" height="824"/><rect class="cls-5" x="800" width="24" height="824"/></g></g><rect class="cls-10" width="824" height="824"/></svg>