<svg xmlns="http://www.w3.org/2000/svg" xmlns:xlink="http://www.w3.org/1999/xlink" viewBox="0 0 841.89 595.28"><defs><style>.cls-1{fill:none;}.cls-2{fill:#444;}.cls-2,.cls-3,.cls-4,.cls-5,.cls-6,.cls-7,.cls-8,.cls-9{opacity:0.1;isolation:isolate;}.cls-4{fill:#aaa;}.cls-5{fill:#ddd;}.cls-6{fill:#999;}.cls-7{fill:#fff;}.cls-8{fill:#666;}.cls-9{fill:#222;}.cls-10{clip-path:url(#clip-path);}.cls-11{fill:url(#b);}.cls-12{fill:url(#linear-gradient);}</style><clipPath id="clip-path"><rect class="cls-1" x="38.63" y="166.59" width="750.05" height="360.05"/></clipPath><pattern id="b" data-name="b" width="1080" height="900" patternTransform="translate(-780.86 931.97) rotate(90) scale(0.5)" patternUnits="userSpaceOnUse" viewBox="0 0 1080 900"><rect class="cls-1" width="1080" height="900"/><rect class="cls-1" width="1080" height="900"/><polygon class="cls-2" points="90 150 0 300 180 300 90 150"/><polygon class="cls-3" points="90 150 180 0 0 0 90 150"/><polygon class="cls-4" points="270 150 360 0 180 0 270 150"/><polygon class="cls-5" points="450 150 360 300 540 300 450 150"/><polygon class="cls-6" points="450 150 540 0 360 0 450 150"/><polygon class="cls-3" points="630 150 540 300 720 300 630 150"/><polygon class="cls-5" points="630 150 720 0 540 0 630 150"/><polygon class="cls-2" points="810 150 720 300 900 300 810 150"/><polygon class="cls-7" points="810 150 900 0 720 0 810 150"/><polygon class="cls-5" points="990 150 900 300 1080 300 990 150"/><polygon class="cls-2" points="990 150 1080 0 900 0 990 150"/><polygon class="cls-5" points="90 450 0 600 180 600 90 450"/><polygon class="cls-3" points="90 450 180 300 0 300 90 450"/><polygon class="cls-8" points="270 450 180 600 360 600 270 450"/><polygon class="cls-4" points="270 450 360 300 180 300 270 450"/><polygon class="cls-5" points="450 450 360 600 540 600 450 450"/><polygon class="cls-6" points="450 450 540 300 360 300 450 450"/><polygon class="cls-6" points="630 450 540 600 720 600 630 450"/><polygon class="cls-7" points="630 450 720 300 540 300 630 450"/><polygon class="cls-3" points="810 450 720 600 900 600 810 450"/><polygon class="cls-5" points="810 450 900 300 720 300 810 450"/><polygon class="cls-4" points="990 450 900 600 1080 600 990 450"/><polygon class="cls-2" points="990 450 1080 300 900 300 990 450"/><polygon class="cls-9" points="90 750 0 900 180 900 90 750"/><polygon class="cls-3" points="270 750 180 900 360 900 270 750"/><polygon class="cls-5" points="270 750 360 600 180 600 270 750"/><polygon class="cls-3" points="450 750 540 600 360 600 450 750"/><polygon class="cls-3" points="630 750 540 900 720 900 630 750"/><polygon class="cls-2" points="630 750 720 600 540 600 630 750"/><polygon class="cls-4" points="810 750 720 900 900 900 810 750"/><polygon class="cls-8" points="810 750 900 600 720 600 810 750"/><polygon class="cls-6" points="990 750 900 900 1080 900 990 750"/><polygon class="cls-6" points="180 0 90 150 270 150 180 0"/><polygon class="cls-2" points="360 0 270 150 450 150 360 0"/><polygon class="cls-7" points="540 0 450 150 630 150 540 0"/><polygon class="cls-3" points="900 0 810 150 990 150 900 0"/><polygon class="cls-9" points="0 300 -90 450 90 450 0 300"/><polygon class="cls-7" points="0 300 90 150 -90 150 0 300"/><polygon class="cls-7" points="180 300 90 450 270 450 180 300"/><polygon class="cls-8" points="180 300 270 150 90 150 180 300"/><polygon class="cls-9" points="360 300 270 450 450 450 360 300"/><polygon class="cls-7" points="360 300 450 150 270 150 360 300"/><polygon class="cls-2" points="540 300 450 450 630 450 540 300"/><polygon class="cls-9" points="540 300 630 150 450 150 540 300"/><polygon class="cls-4" points="720 300 630 450 810 450 720 300"/><polygon class="cls-8" points="720 300 810 150 630 150 720 300"/><polygon class="cls-7" points="900 300 810 450 990 450 900 300"/><polygon class="cls-6" points="900 300 990 150 810 150 900 300"/><polygon class="cls-3" points="0 600 -90 750 90 750 0 600"/><polygon class="cls-8" points="0 600 90 450 -90 450 0 600"/><polygon class="cls-4" points="180 600 90 750 270 750 180 600"/><polygon class="cls-2" points="180 600 270 450 90 450 180 600"/><polygon class="cls-2" points="360 600 270 750 450 750 360 600"/><polygon class="cls-6" points="360 600 450 450 270 450 360 600"/><polygon class="cls-8" points="540 600 630 450 450 450 540 600"/><polygon class="cls-9" points="720 600 630 750 810 750 720 600"/><polygon class="cls-7" points="900 600 810 750 990 750 900 600"/><polygon class="cls-9" points="900 600 990 450 810 450 900 600"/><polygon class="cls-5" points="0 900 90 750 -90 750 0 900"/><polygon class="cls-2" points="180 900 270 750 90 750 180 900"/><polygon class="cls-7" points="360 900 450 750 270 750 360 900"/><polygon class="cls-4" points="540 900 630 750 450 750 540 900"/><polygon class="cls-7" points="720 900 810 750 630 750 720 900"/><polygon class="cls-9" points="900 900 990 750 810 750 900 900"/><polygon class="cls-9" points="1080 300 990 450 1170 450 1080 300"/><polygon class="cls-7" points="1080 300 1170 150 990 150 1080 300"/><polygon class="cls-3" points="1080 600 990 750 1170 750 1080 600"/><polygon class="cls-8" points="1080 600 1170 450 990 450 1080 600"/><polygon class="cls-5" points="1080 900 1170 750 990 750 1080 900"/></pattern><linearGradient id="linear-gradient" x1="413.66" y1="163.93" x2="413.66" y2="528.6" gradientTransform="translate(827.31 692.53) rotate(180)" gradientUnits="userSpaceOnUse"><stop offset="0" stop-color="#fff"/><stop offset="0.09" stop-color="#fff" stop-opacity="0.78"/><stop offset="0.2" stop-color="#fff" stop-opacity="0.5"/><stop offset="0.3" stop-color="#fff" stop-opacity="0.29"/><stop offset="0.39" stop-color="#fff" stop-opacity="0.13"/><stop offset="0.46" stop-color="#fff" stop-opacity="0.04"/><stop offset="0.5" stop-color="#fff" stop-opacity="0"/><stop offset="0.54" stop-color="#fff" stop-opacity="0.04"/><stop offset="0.61" stop-color="#fff" stop-opacity="0.13"/><stop offset="0.7" stop-color="#fff" stop-opacity="0.29"/><stop offset="0.8" stop-color="#fff" stop-opacity="0.5"/><stop offset="0.91" stop-color="#fff" stop-opacity="0.78"/><stop offset="1" stop-color="#fff"/></linearGradient></defs><title>Asset 1</title><g id="Layer_2" data-name="Layer 2"><g id="Layer_1-2" data-name="Layer 1"><g class="cls-10"><rect class="cls-11" width="841.89" height="595.28"/></g><rect class="cls-12" x="38.63" y="163.93" width="750.05" height="364.67" transform="translate(827.31 692.53) rotate(-180)"/></g></g></svg>