<svg xmlns="http://www.w3.org/2000/svg" viewBox="0 0 41.14 41.13"><defs><style>.cls-1{fill:#fff;}.cls-2{fill:#231f20;}</style></defs><title>Asset 1</title><g id="Layer_2" data-name="Layer 2"><g id="Layer_1-2" data-name="Layer 1"><rect class="cls-1" width="41.14" height="41.13" rx="2.85" ry="2.85"/><polygon class="cls-2" points="25.81 20.92 28.3 21.67 27.17 17.61 25.81 20.92"/><path class="cls-2" d="M31.5,12.56V5.08c0-.26-.12-.38-.35-.38,0,0-1,.32-2.9,1S24.49,7,22.6,7.64s-2.85,1-2.88,1L9.72,5.1V12l-2.66.9a.72.72,0,0,0-.36.2.67.67,0,0,0-.07.18V32.54a.33.33,0,0,0,.33.23c.08,0,2.28-.72,6.58-2.17s6.55-2.21,6.72-2.29l13.85,4.41V13.4ZM19.76,27.78,7.33,31.93V13.47L19.76,9.26Zm11-22.26v6.81L20.51,9ZM29.55,26.26l-.66-2.41-3.78-1.17-.8,2-1.83-.55,3.87-9.6,1.79.56,3.28,11.72Z"/><path class="cls-2" d="M26.88,34l-.51.3-.6.34-.55.28a14.6,14.6,0,0,1-2.81.9,15.86,15.86,0,0,1-3,.26,9.94,9.94,0,0,1-2.82-.44,15.5,15.5,0,0,1-2.86-1.1l-.36-.2-.55-.29a1,1,0,0,0-.32-.13.32.32,0,0,0-.23.09.38.38,0,0,0-.09.25.35.35,0,0,0,.14.28,11.66,11.66,0,0,0,3.28,1.52,12.16,12.16,0,0,0,3.58.7h1.5a9,9,0,0,0,1.63-.21,13.37,13.37,0,0,0,4.94-1.94L28,35.82,29,33l-2.83-.23Z"/><path class="cls-2" d="M11,25.41a5.19,5.19,0,0,0,2.1-1.23,4.82,4.82,0,0,0,1.3-2.3,3.34,3.34,0,0,0,.12-1l1-.31-.69,2.69.27,1.26,1.5-.47-.4-1.55,1.58-6.24,1.06-.33-.32-1.23-2.47.79-.37,1.44.82-.26-.62,2.43L14,19.69a4.52,4.52,0,0,0,.59-.72,3.82,3.82,0,0,0,.52-1.21c.21-.81.13-1.36-.23-1.65a1.48,1.48,0,0,0-1.4-.08,4.82,4.82,0,0,0-2.1,1.39l-.83,1.16.69.93c.22-.37.4-.65.54-.85a2.68,2.68,0,0,1,1.23-1,1.17,1.17,0,0,1,.74-.06c.19.06.23.25.15.57a2.61,2.61,0,0,1-1.28,1.52,7.71,7.71,0,0,1-1,.49l-.41.19.1,1.4a1,1,0,0,1,.34-.28,2,2,0,0,1,.51-.23,1,1,0,0,1,.85,0c.24.16.29.5.16,1a1.86,1.86,0,0,1-.67,1,3.82,3.82,0,0,1-1.1.52c-.63.2-1,.1-1.17-.31a1.87,1.87,0,0,1,0-1.1L8.7,24A8.57,8.57,0,0,1,9,25.07C9.34,25.62,10,25.73,11,25.41Z"/><path class="cls-2" d="M38.28,0H2.85A2.84,2.84,0,0,0,0,2.83V38.26a2.84,2.84,0,0,0,2.83,2.85H38.28a2.84,2.84,0,0,0,2.85-2.83V2.85A2.84,2.84,0,0,0,38.3,0Zm1.48,38.34a1.41,1.41,0,0,1-1.4,1.42H2.79a1.4,1.4,0,0,1-1.37-1.42V2.79a1.41,1.41,0,0,1,1.4-1.42H38.39a1.41,1.41,0,0,1,1.42,1.4v0Z"/></g></g></svg>