<?xml version="1.0" encoding="utf-8"?>
<!-- Generator: Adobe Illustrator 22.1.0, SVG Export Plug-In . SVG Version: 6.00 Build 0)  -->
<svg version="1.1" id="Capa_1" xmlns="http://www.w3.org/2000/svg" xmlns:xlink="http://www.w3.org/1999/xlink" x="0px" y="0px"
	 viewBox="0 0 512 512" style="enable-background:new 0 0 512 512;" xml:space="preserve">
<style type="text/css">
	.st0{fill:#383838;}
</style>
<g>
	<g>
		<path class="st0" d="M256,0C114.8,0,0,114.8,0,256s114.8,256,256,256s256-114.8,256-256S397.2,0,256,0z M256,74.7
			c67.6,0,122.7,55,122.7,122.7S323.6,320,256,320s-122.7-55-122.7-122.7S188.4,74.7,256,74.7z M256,469.3
			c-69.7,0-131.5-33.8-170.5-85.6c42.7-20.5,103.6-42.4,170.5-42.4c66.9,0,127.8,21.9,170.5,42.4C387.5,435.6,325.7,469.3,256,469.3
			z"/>
	</g>
</g>
</svg>
