<svg xmlns="http://www.w3.org/2000/svg" xmlns:xlink="http://www.w3.org/1999/xlink" width="77.549" height="87.928" viewBox="0 0 77.549 87.928"><defs><style>.a{fill:#00dd80;}.b{fill:#00aa63;}.c{fill:#fff;}.d{fill:#e1ebf0;}.e{fill:#b4d2d7;}.f{fill:#6fa5aa;}.g{filter:url(#a);}</style><filter id="a" x="0" y="0" width="77.549" height="87.928" filterUnits="userSpaceOnUse"><feOffset dy="3" input="SourceAlpha"/><feGaussianBlur stdDeviation="3" result="b"/><feFlood flood-opacity="0.161"/><feComposite operator="in" in2="b"/><feComposite in="SourceGraphic"/></filter></defs><g transform="translate(-29.924 6)"><g class="g" transform="matrix(1, 0, 0, 1, 29.92, -6)"><path class="a" d="M95.327,46.7a35.28,35.28,0,0,1-8.45,13.163,44.226,44.226,0,0,1-16.514,9.784,5.045,5.045,0,0,1-1.6.283H68.7a5.125,5.125,0,0,1-.985-.1,5.307,5.307,0,0,1-.677-.185A44.225,44.225,0,0,1,50.5,59.868a35.214,35.214,0,0,1-8.448-13.161c-3.413-9.262-3.219-19.465-3.062-27.664l0-.126c.031-.677.052-1.388.063-2.174a7.411,7.411,0,0,1,6.979-7.26c8.04-.449,14.26-3.071,19.574-8.251l.047-.043a4.479,4.479,0,0,1,6.081,0l.045.043C77.1,6.413,83.32,9.035,91.36,9.484a7.411,7.411,0,0,1,6.979,7.26c.011.791.031,1.5.063,2.174v.053C98.559,27.186,98.752,37.409,95.327,46.7Z" transform="translate(-29.92 6)"/></g><path class="b" d="M283.514,46.7a35.28,35.28,0,0,1-8.45,13.163,44.226,44.226,0,0,1-16.514,9.784,5.045,5.045,0,0,1-1.6.283V0a4.486,4.486,0,0,1,2.981,1.19l.045.043c5.315,5.18,11.535,7.8,19.575,8.251a7.411,7.411,0,0,1,6.979,7.26c.011.791.031,1.5.063,2.174v.053C286.746,27.189,286.939,37.412,283.514,46.7Z" transform="translate(-188.187 -0.003)"/><path class="c" d="M164,145.576A17.449,17.449,0,0,1,146.631,163h-.061a17.428,17.428,0,1,1,0-34.856h.061A17.449,17.449,0,0,1,164,145.576Z" transform="translate(-77.872 -110.611)"/><path class="d" d="M274.312,145.576A17.449,17.449,0,0,1,256.946,163V128.148A17.449,17.449,0,0,1,274.312,145.576Z" transform="translate(-188.187 -110.611)"/><path class="e" d="M209,215.068l-7.849,7.85-1.7,1.7a2.054,2.054,0,0,1-2.9,0l-3.647-3.648a2.051,2.051,0,1,1,2.9-2.9l2.2,2.2,8.095-8.095a2.052,2.052,0,0,1,2.9,2.9Z" transform="translate(-132.388 -182.614)"/><path class="f" d="M264.8,215.068l-7.849,7.85v-5.8l4.948-4.947a2.051,2.051,0,0,1,2.9,2.9Z" transform="translate(-188.187 -182.614)"/></g></svg>