<?xml version="1.0" encoding="UTF-8" standalone="no"?>
<!-- Created with Inkscape (http://www.inkscape.org/) -->
<svg xmlns:dc="http://purl.org/dc/elements/1.1/" xmlns:cc="http://creativecommons.org/ns#" xmlns:rdf="http://www.w3.org/1999/02/22-rdf-syntax-ns#" xmlns:svg="http://www.w3.org/2000/svg" xmlns="http://www.w3.org/2000/svg" xmlns:sodipodi="http://sodipodi.sourceforge.net/DTD/sodipodi-0.dtd" xmlns:inkscape="http://www.inkscape.org/namespaces/inkscape" width="852.79718" height="642.6814" id="svg2" version="1.1" inkscape:version="0.47pre4 r22446" sodipodi:docname="New document 1">
  <defs id="defs4">
    <inkscape:perspective sodipodi:type="inkscape:persp3d" inkscape:vp_x="0 : 526.18109 : 1" inkscape:vp_y="0 : 1000 : 0" inkscape:vp_z="744.09448 : 526.18109 : 1" inkscape:persp3d-origin="372.04724 : 350.78739 : 1" id="perspective10"/>
    <inkscape:perspective id="perspective2928" inkscape:persp3d-origin="0.5 : 0.33333333 : 1" inkscape:vp_z="1 : 0.5 : 1" inkscape:vp_y="0 : 1000 : 0" inkscape:vp_x="0 : 0.5 : 1" sodipodi:type="inkscape:persp3d"/>
    <inkscape:perspective id="perspective2928-0" inkscape:persp3d-origin="0.5 : 0.33333333 : 1" inkscape:vp_z="1 : 0.5 : 1" inkscape:vp_y="0 : 1000 : 0" inkscape:vp_x="0 : 0.5 : 1" sodipodi:type="inkscape:persp3d"/>
    <inkscape:perspective id="perspective3299" inkscape:persp3d-origin="0.5 : 0.33333333 : 1" inkscape:vp_z="1 : 0.5 : 1" inkscape:vp_y="0 : 1000 : 0" inkscape:vp_x="0 : 0.5 : 1" sodipodi:type="inkscape:persp3d"/>
    <inkscape:perspective id="perspective4646" inkscape:persp3d-origin="0.5 : 0.33333333 : 1" inkscape:vp_z="1 : 0.5 : 1" inkscape:vp_y="0 : 1000 : 0" inkscape:vp_x="0 : 0.5 : 1" sodipodi:type="inkscape:persp3d"/>
  </defs>
  <sodipodi:namedview id="base" pagecolor="#ffffff" bordercolor="#666666" borderopacity="1.0" inkscape:pageopacity="0.0" inkscape:pageshadow="2" inkscape:zoom="0.24748737" inkscape:cx="326.3459" inkscape:cy="304.19783" inkscape:document-units="px" inkscape:current-layer="layer1" showgrid="false" inkscape:window-width="1024" inkscape:window-height="575" inkscape:window-x="-5" inkscape:window-y="2" inkscape:window-maximized="1"/>
  <g inkscape:label="Layer 1" inkscape:groupmode="layer" id="layer1" transform="translate(425.79559,-91.420849)">
    <flowRoot xml:space="preserve" id="flowRoot4279" style="font-size:11px;font-style:normal;font-weight:normal;fill:#000000;fill-opacity:1;stroke:none;font-family:Bitstream Vera Sans">
      <flowRegion id="flowRegion4281">
        <rect id="rect4283" width="2.0203052" height="78.791901" x="-1545.5334" y="450.31128"/>
      </flowRegion>
      <flowPara id="flowPara4285">s</flowPara>
    </flowRoot>
    <g id="g4761">
      <g transform="translate(-16.109046,-7.245156)" id="g4739">
        <path id="path3256" style="fill:#ccbb77;fill-opacity:1;stroke:none" d="m -262.18977,741.34738 17.04285,0 0,-642.681375 -17.04285,0 0,642.681375 z" sodipodi:nodetypes="ccccc"/>
        <path id="path3262" style="fill:#555533;fill-opacity:1;stroke:none" d="m -262.18977,741.34738 -23.3619,0 0,-642.681375 23.3619,0 0,642.681375 z" sodipodi:nodetypes="ccccc"/>
        <path id="path3268" style="fill:#666622;fill-opacity:1;stroke:none" d="m -23.377541,741.34738 25.7622003,0 0,-642.681375 -25.7622003,0 0,642.681375 z" sodipodi:nodetypes="ccccc"/>
        <path id="path3270" style="fill:#443300;fill-opacity:1;stroke:none" d="m -100.21114,741.34738 -10.2704,0 0,-642.681375 10.2704,0 0,642.681375 z" sodipodi:nodetypes="ccccc"/>
        <path id="path3272" style="fill:#666622;fill-opacity:1;stroke:none" d="m -62.535,741.34738 17.0158,0 0,-642.681375 -17.0158,0 0,642.681375 z" sodipodi:nodetypes="ccccc"/>
        <path id="path3278" style="fill:#443311;fill-opacity:1;stroke:none" d="m -285.55167,741.34738 -35.85563,0 0,-642.681375 35.85563,0 0,642.681375 z" sodipodi:nodetypes="ccccc"/>
        <path id="path3280" style="fill:#998877;fill-opacity:1;stroke:none" d="m -203.91993,741.34738 31.2919,0 0,-642.681375 -31.2919,0 0,642.681375 z" sodipodi:nodetypes="ccccc"/>
        <path id="path3284" style="fill:#333311;fill-opacity:1;stroke:none" d="m -346.3911,741.34738 24.9838,0 0,-642.681375 -24.9838,0 0,642.681375 z" sodipodi:nodetypes="ccccc"/>
        <path id="path3286" style="fill:#9b873a;fill-opacity:1;stroke:none" d="m -141.58205,741.34738 6.9316,0 0,-642.681375 -6.9316,0 0,642.681375 z" sodipodi:nodetypes="ccccc"/>
        <path id="path3288" style="fill:#443311;fill-opacity:1;stroke:none" d="m 2.3846593,741.34738 14.3273997,0 0,-642.681375 -14.3273997,0 0,642.681375 z" sodipodi:nodetypes="ccccc"/>
        <path id="path3260-1" style="fill:#9b873a;fill-opacity:1;stroke:none" d="m -409.68654,741.34738 28.38228,0 0,-642.681375 -28.38228,0 0,642.681375 z" sodipodi:nodetypes="ccccc"/>
        <path id="path3268-0" style="fill:#443300;fill-opacity:1;stroke:none" d="m -233.96303,741.34738 -11.18389,0 0,-642.681375 11.18389,0 0,642.681375 z" sodipodi:nodetypes="ccccc"/>
        <path id="path3270-8" style="fill:#443300;fill-opacity:1;stroke:none" d="m -141.58205,741.34738 -31.04598,0 0,-642.681375 31.04598,0 0,642.681375 z" sodipodi:nodetypes="ccccc"/>
        <path id="path3276-0" style="fill:#666622;fill-opacity:1;stroke:none" d="m -367.55315,741.34738 21.16205,0 0,-642.681375 -21.16205,0 0,642.681375 z" sodipodi:nodetypes="ccccc"/>
        <path id="path3278-1" style="fill:#554400;fill-opacity:1;stroke:none" d="m -134.65045,741.34738 24.16891,0 0,-642.681375 -24.16891,0 0,642.681375 z" sodipodi:nodetypes="ccccc"/>
        <path id="path3280-0" style="fill:#555533;fill-opacity:1;stroke:none" d="m -203.91993,741.34738 -30.0431,0 0,-642.681375 30.0431,0 0,642.681375 z" sodipodi:nodetypes="ccccc"/>
        <path id="path3282-8" style="fill:#ccbb77;fill-opacity:1;stroke:none" d="m -84.739134,741.34738 22.204134,0 0,-642.681375 -22.204134,0 0,642.681375 z" sodipodi:nodetypes="ccccc"/>
        <path id="path3284-1" style="fill:#555533;fill-opacity:1;stroke:none" d="m -23.377541,741.34738 -22.141659,0 0,-642.681375 22.141659,0 0,642.681375 z" sodipodi:nodetypes="ccccc"/>
        <path id="path3286-6" style="fill:#333311;fill-opacity:1;stroke:none" d="m -367.55315,741.34738 -13.75111,0 0,-642.681375 13.75111,0 0,642.681375 z" sodipodi:nodetypes="ccccc"/>
        <path id="path3288-7" style="fill:#554400;fill-opacity:1;stroke:none" d="m -84.739134,741.34738 -15.472006,0 0,-642.681375 15.472006,0 0,642.681375 z" sodipodi:nodetypes="ccccc"/>
      </g>
      <g transform="translate(-43.890854,0)" id="g4717">
        <path id="path3256-4" style="fill:#ccbb77;fill-opacity:1;stroke:none" d="m 252.51436,734.10222 17.04285,0 0,-642.681367 -17.04285,0 0,642.681367 z" sodipodi:nodetypes="ccccc"/>
        <path id="path3262-5" style="fill:#555533;fill-opacity:1;stroke:none" d="m 160.62322,734.10222 -23.3619,0 0,-642.681367 23.3619,0 0,642.681367 z" sodipodi:nodetypes="ccccc"/>
        <path id="path3268-5" style="fill:#666622;fill-opacity:1;stroke:none" d="m 269.55721,734.10222 25.7622,0 0,-642.681367 -25.7622,0 0,642.681367 z" sodipodi:nodetypes="ccccc"/>
        <path id="path3270-1" style="fill:#443300;fill-opacity:1;stroke:none" d="m 54.764267,734.10222 -10.2704,0 0,-642.681367 10.2704,0 0,642.681367 z" sodipodi:nodetypes="ccccc"/>
        <path id="path3272-2" style="fill:#666622;fill-opacity:1;stroke:none" d="m 395.69498,734.10222 17.0158,0 0,-642.681367 -17.0158,0 0,642.681367 z" sodipodi:nodetypes="ccccc"/>
        <path id="path3278-6" style="fill:#443311;fill-opacity:1;stroke:none" d="m 196.47885,734.10222 -35.85563,0 0,-642.681367 35.85563,0 0,642.681367 z" sodipodi:nodetypes="ccccc"/>
        <path id="path3280-4" style="fill:#998877;fill-opacity:1;stroke:none" d="m 84.807367,734.10222 31.291903,0 0,-642.681367 -31.291903,0 0,642.681367 z" sodipodi:nodetypes="ccccc"/>
        <path id="path3284-15" style="fill:#333311;fill-opacity:1;stroke:none" d="m 348.50705,734.10222 24.9838,0 0,-642.681367 -24.9838,0 0,642.681367 z" sodipodi:nodetypes="ccccc"/>
        <path id="path3286-2" style="fill:#9b873a;fill-opacity:1;stroke:none" d="m 210.22996,734.10222 6.9316,0 0,-642.681367 -6.9316,0 0,642.681367 z" sodipodi:nodetypes="ccccc"/>
        <path id="path3288-6" style="fill:#443311;fill-opacity:1;stroke:none" d="m 428.18279,734.10222 14.3274,0 0,-642.681367 -14.3274,0 0,642.681367 z" sodipodi:nodetypes="ccccc"/>
        <path id="path3260-1-6" style="fill:#9b873a;fill-opacity:1;stroke:none" d="m 442.51019,734.10222 28.38228,0 0,-642.681367 -28.38228,0 0,642.681367 z" sodipodi:nodetypes="ccccc"/>
        <path id="path3268-0-5" style="fill:#443300;fill-opacity:1;stroke:none" d="m 252.51436,734.10222 -11.18389,0 0,-642.681367 11.18389,0 0,642.681367 z" sodipodi:nodetypes="ccccc"/>
        <path id="path3270-8-7" style="fill:#443300;fill-opacity:1;stroke:none" d="m 326.36539,734.10222 -31.04598,0 0,-642.681367 31.04598,0 0,642.681367 z" sodipodi:nodetypes="ccccc"/>
        <path id="path3276-0-3" style="fill:#666622;fill-opacity:1;stroke:none" d="m 116.09927,734.10222 21.16205,0 0,-642.681367 -21.16205,0 0,642.681367 z" sodipodi:nodetypes="ccccc"/>
        <path id="path3278-1-4" style="fill:#554400;fill-opacity:1;stroke:none" d="m 217.16156,734.10222 24.16891,0 0,-642.681367 -24.16891,0 0,642.681367 z" sodipodi:nodetypes="ccccc"/>
        <path id="path3280-0-9" style="fill:#555533;fill-opacity:1;stroke:none" d="m 84.807367,734.10222 -30.0431,0 0,-642.681367 30.0431,0 0,642.681367 z" sodipodi:nodetypes="ccccc"/>
        <path id="path3282-8-9" style="fill:#ccbb77;fill-opacity:1;stroke:none" d="m 373.49085,734.10222 22.20413,0 0,-642.681367 -22.20413,0 0,642.681367 z" sodipodi:nodetypes="ccccc"/>
        <path id="path3284-1-6" style="fill:#555533;fill-opacity:1;stroke:none" d="m 348.50705,734.10222 -22.14166,0 0,-642.681367 22.14166,0 0,642.681367 z" sodipodi:nodetypes="ccccc"/>
        <path id="path3286-6-7" style="fill:#333311;fill-opacity:1;stroke:none" d="m 210.22996,734.10222 -13.75111,0 0,-642.681367 13.75111,0 0,642.681367 z" sodipodi:nodetypes="ccccc"/>
        <path id="path3288-7-1" style="fill:#554400;fill-opacity:1;stroke:none" d="m 428.18279,734.10222 -15.47201,0 0,-642.681367 15.47201,0 0,642.681367 z" sodipodi:nodetypes="ccccc"/>
      </g>
    </g>
  </g>
  <metadata>
    <rdf:RDF>
      <cc:Work>
        <dc:format>image/svg+xml</dc:format>
        <dc:type rdf:resource="http://purl.org/dc/dcmitype/StillImage"/>
        <cc:license rdf:resource="http://creativecommons.org/licenses/publicdomain/"/>
        <dc:publisher>
          <cc:Agent rdf:about="http://openclipart.org/">
            <dc:title>Open Clip Art Library</dc:title>
          </cc:Agent>
        </dc:publisher>
        <dc:title>Stripe background</dc:title>
        <dc:date>2011-02-24T02:00:26</dc:date>
        <dc:description/>
        <dc:source>http://openclipart.org/detail/122167/stripe-background-by-dear_theophilus</dc:source>
        <dc:creator>
          <cc:Agent>
            <dc:title>dear_theophilus</dc:title>
          </cc:Agent>
        </dc:creator>
        <dc:subject>
          <rdf:Bag>
            <rdf:li>background</rdf:li>
            <rdf:li>brown</rdf:li>
            <rdf:li>clip art</rdf:li>
            <rdf:li>clipart</rdf:li>
            <rdf:li>desktop</rdf:li>
            <rdf:li>stripe</rdf:li>
            <rdf:li>wallpaper</rdf:li>
          </rdf:Bag>
        </dc:subject>
      </cc:Work>
      <cc:License rdf:about="http://creativecommons.org/licenses/publicdomain/">
        <cc:permits rdf:resource="http://creativecommons.org/ns#Reproduction"/>
        <cc:permits rdf:resource="http://creativecommons.org/ns#Distribution"/>
        <cc:permits rdf:resource="http://creativecommons.org/ns#DerivativeWorks"/>
      </cc:License>
    </rdf:RDF>
  </metadata>
</svg>
