<svg xmlns="http://www.w3.org/2000/svg" width="22.829" height="22.848" viewBox="0 0 22.829 22.848"><defs><style>.a{fill:#bf6d15;}.b{fill:#fac412;}.c{fill:#fa8c16;}</style></defs><g transform="translate(0 0)"><path class="a" d="M52.132,28.685l-2.838-2.838a2.062,2.062,0,0,0-2.851,0l-.455.469c-.016.016-.5.488-.5.509a.651.651,0,0,0,.027.91l4.726,4.726a.647.647,0,0,0,.937,0l.95-.95A1.985,1.985,0,0,0,52.132,28.685Z" transform="translate(-43.306 -24.147)"/><path class="a" d="M327.8,304.965l-2.838-2.838a2.029,2.029,0,0,0-2.825,0l-.468.482-.482.469a.647.647,0,0,0,0,.937l4.739,4.739a.662.662,0,0,0,.95,0l.455-.469.469-.482A2,2,0,0,0,327.8,304.965Z" transform="translate(-306.675 -288.098)"/><path class="b" d="M20.872,66.619l-.455.469c-3.655,3.293-7.925,2.5-10.335.08L2.33,59.39a7.231,7.231,0,0,1,0-10.228.516.516,0,0,0,.12-.12l.442-.442,5.663,5.663-.268.281-.2.2c-.428.469-.777.763-.777,1.419a1.551,1.551,0,0,0,.442,1.084l2.236,2.236,2.236,2.262a1.561,1.561,0,0,0,2.156,0l.348-.335.482-.469Z" transform="translate(-0.212 -46.431)"/><g transform="translate(10.787)"><path class="b" d="M253.982,11.379a.669.669,0,0,1-1.339,0A10.056,10.056,0,0,0,242.6,1.339.669.669,0,0,1,242.6,0a11.381,11.381,0,0,1,11.379,11.379Z" transform="translate(-241.94)"/><path class="b" d="M251.3,68.7a.669.669,0,0,1-1.339,0,7.359,7.359,0,0,0-7.363-7.363.669.669,0,0,1,0-1.339,8.73,8.73,0,0,1,8.7,8.7Z" transform="translate(-241.94 -57.322)"/><path class="b" d="M248.627,126.024a.669.669,0,0,1-1.339,0,4.708,4.708,0,0,0-4.686-4.686.669.669,0,0,1,0-1.339,6.034,6.034,0,0,1,6.024,6.024Z" transform="translate(-241.94 -114.645)"/><path class="b" d="M245.95,183.347a.669.669,0,0,1-1.339,0,2.011,2.011,0,0,0-2.008-2.008.669.669,0,0,1,0-1.339,3.337,3.337,0,0,1,3.347,3.347Z" transform="translate(-241.94 -171.967)"/></g><g transform="translate(12.869 5.235)"><path class="c" d="M289.179,204.269a1.991,1.991,0,0,0-.589-1.419l.951-.951a3.349,3.349,0,0,1,.977,2.37A.669.669,0,0,1,289.179,204.269Z" transform="translate(-288.59 -198.124)"/><path class="c" d="M332.266,163.857a4.632,4.632,0,0,0-1.379-3.307l.95-.95a5.989,5.989,0,0,1,1.767,4.257A.669.669,0,0,1,332.266,163.857Z" transform="translate(-329 -157.712)"/><path class="c" d="M375.643,123.445a7.38,7.38,0,0,0-2.155-5.208l.937-.937a8.639,8.639,0,0,1,2.557,6.145A.669.669,0,0,1,375.643,123.445Z" transform="translate(-369.699 -117.3)"/></g><path class="c" d="M143.683,293.959l5.663,5.676-.455.469c-3.655,3.293-7.925,2.5-10.335.08l-3.869-3.895v-.013l3.775-3.775,2.236,2.261a1.561,1.561,0,0,0,2.156,0l.348-.335Z" transform="translate(-128.685 -279.448)"/><path class="c" d="M420.073,82.746a.669.669,0,0,1-1.339,0,10,10,0,0,0-2.945-7.1l.951-.951A11.354,11.354,0,0,1,420.073,82.746Z" transform="translate(-397.244 -71.366)"/></g></svg>