<svg xmlns="http://www.w3.org/2000/svg" xmlns:xlink="http://www.w3.org/1999/xlink" viewBox="0 0 1504.91 1289.41"><defs><style>.cls-1{fill:#8dbb9b;}.cls-2{fill:url(#linear-gradient);}.cls-3{fill:#00ff1f;}.cls-4{fill:#4d4142;}.cls-5{fill:#eea886;}.cls-6{fill:#cf8c6c;}.cls-7{fill:#ccc;}.cls-8{fill:url(#linear-gradient-2);}.cls-9{fill:#244057;}.cls-10{fill:#81807e;}.cls-11{fill:#ffbf55;}.cls-12{fill:#ab8039;}.cls-13{fill:#a77860;}.cls-14{fill:#8a664d;}.cls-15{fill:#4a3f3f;}.cls-16{fill:#ffd239;}.cls-17{fill:#639c38;}.cls-18{fill:#db9c7c;}.cls-19{fill:#292c47;}.cls-20{fill:#202338;}.cls-21{fill:#ccccce;}.cls-22{fill:#eea987;}.cls-23{fill:#665249;}.cls-24{fill:#538742;}.cls-25{fill:#fff;}.cls-26{fill:#face87;}.cls-27{fill:url(#linear-gradient-3);}.cls-28{fill:#008655;}.cls-29{fill:#cf433e;}.cls-30{fill:#7ec242;}.cls-31{fill:#a34648;}.cls-32{fill:#e94061;}.cls-33{fill:#5b3f60;}.cls-34{fill:#82c07e;}.cls-35{fill:url(#linear-gradient-4);}.cls-36{fill:url(#linear-gradient-5);}.cls-37{fill:#3c6b4a;}.cls-38{fill:#1b384f;}.cls-39{fill:#323657;}.cls-40{fill:#ededed;}.cls-41{fill:#ee5700;}</style><linearGradient id="linear-gradient" x1="-358.58" y1="1339.81" x2="1095.69" y2="971.87" gradientTransform="matrix(0.87, 0, 0, 1.09, 12.9, -114.68)" gradientUnits="userSpaceOnUse"><stop offset="0" stop-color="#3076a1"/><stop offset="1" stop-color="#639c38"/></linearGradient><linearGradient id="linear-gradient-2" x1="736.68" y1="1099.71" x2="736.68" y2="926.35" gradientUnits="userSpaceOnUse"><stop offset="0" stop-color="#fff"/><stop offset="1" stop-color="#ccc"/></linearGradient><linearGradient id="linear-gradient-3" x1="-8930.14" y1="1358.7" x2="-8901.05" y2="1358.7" gradientTransform="matrix(-0.97, -0.23, -0.23, 0.97, -7401.78, -2831.9)" gradientUnits="userSpaceOnUse"><stop offset="0" stop-color="#f4ec49"/><stop offset="1" stop-color="#eb7947"/></linearGradient><linearGradient id="linear-gradient-4" x1="-2459.44" y1="680.26" x2="-2491.18" y2="760.04" gradientTransform="matrix(-1, 0, 0, 1, -1331.07, -4.7)" gradientUnits="userSpaceOnUse"><stop offset="0" stop-color="#face87"/><stop offset="1" stop-color="#faba52"/></linearGradient><linearGradient id="linear-gradient-5" x1="202.36" y1="126.57" x2="406.21" y2="126.57" gradientTransform="translate(7.67 -7) rotate(-0.1)" gradientUnits="userSpaceOnUse"><stop offset="0" stop-color="#4f8d62"/><stop offset="1" stop-color="#639c38"/></linearGradient></defs><title>Asset 1</title><g id="Layer_2" data-name="Layer 2"><g id="Слой_1" data-name="Слой 1"><path class="cls-1" d="M1016.28,1271.88c-49.19-16.3-146.6-50.23-237.51-72.36-158-38.49-352.58-52.25-451.52-34.44C171.4,1193.17,10.42,1060.48,138.55,977c63.31-41.28,404.23-112.54,657.18-132.41h.07c135.89-10.65,246.39-6.51,274.81,25.13,114,126.76,175.49,57.43,383.68,224.37S1171.3,1323.26,1016.28,1271.88Z"/><path class="cls-2" d="M885.48,896.38C828,961.47,705,961.68,794.61,1040s111,153.31,52.47,176.4h0c-175-41.86-530.73-46.56-640.28-27.17C34.22,1219.78-3.66,1065.16,138.2,974.31c70.11-44.91,447.58-122.45,727.65-144.07h.07C868.61,830.3,941.86,832.46,885.48,896.38Z"/><path class="cls-3" d="M1326,1159.6c6.85,1.3,33.31,4,45.52-28.6a17.59,17.59,0,0,1-18.17,3.07c-7.8-2.9-19.37,1.81-25.27,11.38,1.89-20.72-2-34.93-2.74-53.83-.12-2.87-.13-5.47-.08-7.87,4.7-.86,33.25-7.61,31.48-44.46a17.57,17.57,0,0,1-15.47,10c-9.26.46-19.09,11.44-19,24.31a44.35,44.35,0,0,0-2.67,15.64c-.12,9.16,2.23,18.56,3.67,28.9a39.25,39.25,0,0,0-5-8.13c-11.83-14.56-24.74-16.34-27.17-20.08,0,0-4.56,16.61,13.86,27.78,11.29,6.83,16.75,13.32,19.32,17.34a71.79,71.79,0,0,1-5,23.79c-11.4,29.1,4.33,59.58,4.33,59.58l10.06-6.21s-15.29-17.62-8.3-49.09C1325.58,1161.88,1325.71,1160.8,1326,1159.6Z"/><path class="cls-4" d="M1240.68,1228.9s75.46-84,166.51-.28Z"/><path class="cls-5" d="M815,442.55s19.06-7.95,22-9.07,11.53.86,21.18,4,21.28,11.7,21.75,13.39,1.72,3.17.23,7.41a17,17,0,0,1-5.07,7s.62,6.09-4.06,9.16A8.48,8.48,0,0,1,865.9,483s-.3,5.43-4.73,7c0,0-8.6-2-12-1.8s-21-5.15-37.09-12.88C812.08,475.31,794,467.48,815,442.55Z"/><path class="cls-6" d="M841.66,454.71s-7.25,7.42-10.33,8.47,8,21.62,8,21.62S850.44,463.76,841.66,454.71Z"/><path class="cls-5" d="M808.21,443s8.95.77,14.85-.65-6.44,27.05-6.44,27.05-11.3-11.65-19.8-13.62S808.21,443,808.21,443Z"/><rect class="cls-7" x="501.04" y="661.36" width="603.94" height="12.32" transform="translate(-9.69 1323.22) rotate(-78.63)"/><path class="cls-8" d="M685.19,926.35,661.34,1045c13.89,42.3,55,54.51,55,54.51s42.67,4.63,71.82-29L812,951.84Z"/><path class="cls-9" d="M686.06,1064.8S703.3,1084,720.78,1088s29.71,9.11,29.86,20.13-50.25,18.38-70.26,7.3c-29.87-16.54-32.89-11.54-36.22-19.82s3.51-30.45,3.71-33.11C648.11,1059.22,686.06,1064.8,686.06,1064.8Z"/><path class="cls-9" d="M510.49,1070.1s12.69,18.7,29.63,23c16.71,4.22,27.54,12.31,28.38,23s-39.32,24.82-67.59,6c-18.57-12.34-25.49-11.62-29.24-19.47s1.3-29.8,1.53-32.44C473.47,1067.07,510.49,1070.1,510.49,1070.1Z"/><path class="cls-5" d="M647.7,516.83s17.73,126.73,25.19,173.91c8.73,55.16,10.31,85.57,12.76,114.12,3.09,35.92-3.68,240.25-1.54,250.75s-33.94-5.36-33.94-5.36-31.86-223.84-40.94-262.08C600.77,752.56,569.35,599.25,561.7,609s-16.86,179-22.48,207.1S510,1060.85,510,1060.85s-24,5.47-34.43-3.32c0,0-13.39-183.83-9.87-236.51,1.35-20.08-23.93-240.64,7.85-329.51C490.3,444.55,647.7,516.83,647.7,516.83Z"/><path class="cls-9" d="M647.7,516.83s17.73,126.73,25.19,173.91c8.73,55.16,10.31,85.57,12.76,114.12,3.09,35.92,2.14,172.65,2.22,183.36.08,11.89-51.84,5.84-51.84,5.84s-17.72-167.65-26.8-205.89C600.77,752.56,569.35,599.25,561.7,609s-16.86,179-22.48,207.1-18,190-18,190-45.06,6.38-55.48-2.4c0,0-3.62-130-.1-182.7,1.35-20.08-23.93-240.64,7.85-329.51C490.3,444.55,647.7,516.83,647.7,516.83Z"/><path class="cls-10" d="M650.17,1050.25s24.07,9.13,33.7,2.64l3,12.76s-7.74,4.51-21.07,2.84-17.92-6-17.92-6Z"/><path class="cls-10" d="M475.37,1055.21s27.65,10.22,35,2.12l1.26,14.31s-2.73,4.44-13.54,3.92-24.87-5.32-24.87-5.32Z"/><path class="cls-11" d="M819,440.85l-4.51,37.48C697,420.88,681.58,393.76,677.25,388.25c-3-3.8-16.06-24.58-22.41-40-.54-1.28-1-2.53-1.45-3.72l-5.66-17.66v0c-2.55,36-1.5,90.74-1.32,165l2.92,36.47c-39.91,23.77-187.15,15.42-187.15,15.42l3.31-88s2.75-30.9,2.86-57.66c0-3.06,0-6.07-.07-9,0,0-.12-4.45-.61-11.26h0c-1.06-14.79-3.87-40.65-11.05-55.87-10.19-21.59-43.92-33.15-45.85-33.79l-.09,0s-.24-1.47-.62-4c-.05-.33-.08-.5-.08-.5-1.76-11.84-6-44.12-3.25-61.13,5.37-21.09,18.19-25.89,21.78-27.92,37.41-21,82.55-36.83,82.55-36.83,11.51.65,45.86,3.81,56.91,4.84,0,0,68.11,25.92,88.08,47.52l59.68,137.8Z"/><path class="cls-5" d="M577.17,178.38s-22.91,12.57-66.45-8.86c0,0,3.12-43.37-4.38-72.15s57.92,40.42,57.92,40.42c-.73.48-1,3.31-.75,7.29.08,1.29.21,2.71.39,4.22.24,1.88.55,3.88,1,5.93.1.56.21,1.12.34,1.68C567.29,166.52,571.23,176.51,577.17,178.38Z"/><path class="cls-11" d="M547.36,287.82S502,315.45,492.17,319.38c-7.1,2.83-17.07-7.9-26.24-33.34,0,0-24.77-35.36-55.95-2.25,0,0,11.91,78.41,47,96.24,11.6,5.9,112-64.5,112-64.5S556.93,298.43,547.36,287.82Z"/><path class="cls-11" d="M511.35,151.59s41.73,17.31,53.63,4.25l3.8,7,13.71,19s-58.68,16.13-73.28-2.58Z"/><path class="cls-12" d="M654.84,348.29c-.54-1.28-1-2.53-1.45-3.72l-5.66-17.66v0s-.78-9.75-2.28-22.31h0c-1.77-14.69-4.53-33.21-8.24-44.47,0,0,6.15,7.95,11.2,26.24q1.05,3.75,2,8.11C653.35,307.89,655.45,325.63,654.84,348.29Z"/><path class="cls-12" d="M542.14,333.84c-32.65,38.35-73.79,64.37-73.79,64.37,0-3.06,0-6.07-.07-9,0,0-.12-4.45-.61-11.26l.18-.07c18.48-7.25,53.91-30.66,57.2-32.84C525.16,345,542.1,333.85,542.14,333.84Z"/><path class="cls-13" d="M564.86,155.23c-29.49,3.57-42.6-25.06-42.6-25.06,19.65,24.07,41.44,18.78,42,18.66C564.45,150.71,564.45,153.18,564.86,155.23Z"/><polygon class="cls-14" points="206.76 71.55 213.61 61.43 750.44 365.33 743.59 375.45 206.76 71.55"/><polygon class="cls-15" points="213.61 61.43 162.57 39.91 159.1 46.06 208.53 72.56 213.61 61.43"/><path class="cls-5" d="M606.41,277.58s-.87,4.37-2.18,6.09c0,0-2.62,3-4.36,5.18a20,20,0,0,0-1.27,1.76c-1.07,1.82-2.89,6.14-6.69,9.79s-24.25,15.15-24.25,15.15l-9.36-9.29-10-7.44s8.43-31.15,11.58-35a11.91,11.91,0,0,1,1-1c3-3,6.44-3.92,8.18-5.3.65-.5,7.37-5.06,9.7-4.38,3.24.93,5.1,2.9,5.78,5.1,0,0,6.26,2.12,8.61,5.89,0,0,5.84,1.77,7.43,7.3C600.54,271.44,606.26,273.89,606.41,277.58Z"/><rect class="cls-16" x="881.01" y="663.17" width="136.47" height="234.01" transform="translate(-1.32 1.61) rotate(-0.1)"/><path class="cls-16" d="M1017.34,699.34s4.28,47.26,7.47,67.46,2.32,125.7.22,130.26l-154.56.26S864,816,870.29,790.59s10.59-87.46,10.59-87.46Z"/><path class="cls-17" d="M894.94,760.93S885,795.65,885,809.32s5.11,69.39,5.11,69.39l115.93-.2s-1.66-49.41-.12-66.77-8-51-8-51Z"/><path class="cls-18" d="M877.42,450.15s-24.4-7.29-26.06-3.51,0,6.18,0,6.18L840,454.38s-7,5.29.83,11.33c0,0-7,4.27,1.2,9.21,0,0-3.38,4.88,0,7.84S861.17,490,861.17,490s4.71-.24,5.2-6.68a9.41,9.41,0,0,0,5.21-8.62s4.71-2.44,4.41-9.06c0,0,8.31-6.51,3.9-14.57C879.89,451.06,878.45,450.45,877.42,450.15Z"/><path class="cls-5" d="M838.21,434s12.61,12.09,16.6,21.71c.91,2.18,1.38,4.46-.3,6.12s-6.21,1.33-12-3.63-15.41-8.74-15.41-8.74S822.75,442.62,838.21,434Z"/><path class="cls-19" d="M1067.37,1100.86s-12.18,13.63-24.55,16.51-21,6.52-21.11,14.34,35.65,12.9,49.81,5c21.12-11.79,23.28-8.25,25.61-14.13s-2.85-21.59-2.7-23.46C1094.61,1096.81,1067.37,1100.86,1067.37,1100.86Z"/><path class="cls-19" d="M1191.8,1104.19s-9,13.28-21,16.36c-11.82,3-19.48,8.79-20,16.39s27.93,17.49,47.92,4.12c13.13-8.79,18-8.3,20.67-13.88s-1.42-21.17-1.16-23C1218.55,1102,1191.8,1104.19,1191.8,1104.19Z"/><path class="cls-20" d="M1092.77,1090.46s-17,6.53-23.88,2l-2.09,9s5.5,3.18,14.94,2,12.69-4.31,12.69-4.31Z"/><path class="cls-20" d="M1216.66,1093.56s-19.58,7.31-24.79,1.58l-.86,10.15s1.94,3.14,9.6,2.74,17.62-3.83,17.62-3.83Z"/><path class="cls-5" d="M1102.89,712.15S1081,802.29,1075.8,835.74c-6,39.11-7.1,60.67-8.77,80.91-2.1,25.46,3.19,170.24,1.7,177.69s24-3.88,24-3.88,22-158.71,28.38-185.83c5.91-25.25,27.81-134,33.25-127.09s12.38,126.81,16.43,146.71,21.32,173.39,21.32,173.39,17,3.81,24.39-2.44c0,0,9-130.31,6.43-167.63-1-14.22,16.38-170.59-6.35-233.49C1204.6,660.84,1102.89,712.15,1102.89,712.15Z"/><path class="cls-19" d="M1100.56,692.89S1081,802.29,1075.8,835.74c-6,39.11-7.1,60.67-8.77,80.91-2.1,25.46-7.34,169.58-7.36,177.17,0,8.43,39.76,3,39.76,3s15.37-165,21.72-192.17c5.91-25.25,27.81-134,33.25-127.09s12.38,126.81,16.43,146.71,13,179,13,179,32.1-.15,39.47-6.4c0,0,2.25-132-.37-169.28-1-14.22,16.38-170.59-6.35-233.49C1204.6,660.84,1100.56,692.89,1100.56,692.89Z"/><path class="cls-5" d="M993.28,536s-11.45-11.92-12.88-13.61S973,519,966,517.69s-17,0-17.89.86S946,519.92,945.5,523a11.94,11.94,0,0,0,.75,6s-2.44,3.52-.61,7a6.36,6.36,0,0,0,.58,7s-2,3.4.2,5.84c0,0,5.34,2.05,8,3,2.26.78,14.75,2.66,27.25,3.37C981.64,555.23,997.74,558.42,993.28,536Z"/><path class="cls-21" d="M976.79,556.8s50.81,18.54,60,21.4c7,2.19,16,8.68,32.31-1.18,7.6-4.59,17.65-13.94,27-23.58h0c2.16-2.22,4.27-4.47,6.31-6.66h0c10.61-11.45,19.13-21.85,20.09-23.5,1.94-3.34,40.29-31.09,13.58-49.69-6-4.17-29.09-14.19-42.19.06-11.51,12.52-16.78,36-19.57,41.29-3.28,6.28-17.55,32.84-17.55,32.84-.8,2-20.14-3.79-22.77-4.57-7.66-2.3-45.92-14.11-45.92-14.11Z"/><path class="cls-22" d="M1177,416.34l0,0a124,124,0,0,1-16.77,21.3c-21,21-63.35,16.4-56.11-47.55,1.37-12.11,4.09-21.74,7.49-29.39,12.15-27.28,33.06-29.5,33.06-29.5,15.13,1,41,8,47.33,28.62C1196.45,374.52,1189.11,397,1177,416.34Z"/><path class="cls-23" d="M1177,416.34l0,0s-2.24.31-8.1-16.42c-1.18-3.35-2.66-1.24-3.17-2.72l-11.84-6.38s14.83-19.06-.56-26.75c-15.69-7.84-41.72-3.37-41.72-3.37,12.15-27.28,33.06-29.5,33.06-29.5,15.13,1,41,8,47.33,28.62C1196.45,374.52,1189.11,397,1177,416.34Z"/><path class="cls-22" d="M1163.18,387.21c.92-4.31,9.42-8,13,1.21s-8.44,19.07-11.62,17S1161.65,394.33,1163.18,387.21Z"/><path class="cls-24" d="M1190.77,391.31s-36.57-32.57-84.41-28.44c0,0,9.94-57.95,61.8-41.44C1216.88,337,1193.3,384.94,1190.77,391.31Z"/><path class="cls-24" d="M1166.63,375.6s-40.59,2.24-65.33-6.19,6.53-12.51,6.53-12.51S1129.81,352.85,1166.63,375.6Z"/><path class="cls-25" d="M1136.46,458.48s-30.6,6.34-34.57,9.86c-4.3,3.75-12.85,41.64-13.28,51.85s2.26,52.3,6.6,68.17,4.12,91.74,1.43,113.76c0,0,63.38,15.09,129.63,6.36,0,0-10.49-79.42-7.88-101.2,3.35-27.89,14.28-88.71,14.28-88.71s-.89-42.16-6.8-47.14-51.62-13-51.62-13Z"/><path class="cls-5" d="M1129.62,465.58s9.4,7,40.79-6.86c0,0-4.59-15.58,1.54-35.71s-39,19.52-39,19.52c.51.36.61,2.37.33,5.17,0,.19,0,.37-.07.56a53.92,53.92,0,0,1-1.24,6.85c-.08.31-.15.61-.23.91C1130,462.75,1129.61,459.71,1129.62,465.58Z"/><path class="cls-13" d="M1131.93,455.11h0c22.51,2.86,34.75-21.42,35.11-22.13-15.37,22.49-33.86,15.28-33.86,15.28h0A53.92,53.92,0,0,1,1131.93,455.11Z"/><path class="cls-5" d="M1129.74,459.94s-7.18,10.72,2.86,12.53,30.5-.46,41.65-14.06C1174.25,458.41,1143.84,455.82,1129.74,459.94Z"/><path class="cls-5" d="M979.86,522.21s-12,3.19-17.73,7.79c-1.31,1-2.38,2.29-1.91,3.9s3.41,3,8.66,1.83,12.55-.15,12.55-.15S986.49,532.85,979.86,522.21Z"/><path class="cls-26" d="M1063.61,700.09c-.1-2.21-2-54.56,27.4-85.38,13.61-14.24,31.72-21.49,53.82-21.52s40.22,7.14,53.88,21.34c29.55,30.72,27.78,83.07,27.69,85.28l-.14,3.64-162.49.27Zm129.64-80.3c-12.17-12.66-28.46-19-48.41-19s-36.2,6.48-48.32,19.16c-23,24-25.23,64-25.36,76.19l147.68-.25C1218.68,683.7,1216.31,643.77,1193.25,619.79Z"/><path class="cls-5" d="M1038.44,670.3s3.82.06,5.51-.73c0,0,3-1.66,5.12-2.72a17.09,17.09,0,0,1,1.72-.75c1.72-.57,5.67-1.31,9.42-3.85s17.09-17.61,17.09-17.61l-6.11-9.53-4.44-9.74s-27.66,1.46-31.42,3.41a11.43,11.43,0,0,0-1,.62c-3,2-4.45,4.7-5.92,5.91-.54.45-5.58,5.27-5.43,7.34a6.8,6.8,0,0,0,3.24,5.78s.64,5.63,3.39,8.29c0,0,.43,5.21,4.78,7.54C1034.35,664.26,1035.37,669.51,1038.44,670.3Z"/><path class="cls-21" d="M1216.06,467.51c-7.61-1.18-30.77-1.77-38.61,32.35-3.57,15.53-6.74,33.18-7.13,39.49s-12.25,51.71-16.52,55.06c-5.41,4.24-33.66,13.19-36.29,14.38-9.07,4.12-52.44,15.31-52.44,15.31l3.26,33s95.28-23.16,105.63-28.77c6.82-3.69,16.79-10.16,25.43-28.3,9.51-20,30.79-62.7,31.09-66.76S1249.93,472.78,1216.06,467.51Z"/><path class="cls-26" d="M1197.56,624.75s-21.72-27.84-58.37-23.79l0-7.6s35.45-4.94,61.56,23.36Z"/><path class="cls-27" d="M974.35,492.88s14.81.57,11.45,14.8-30,73.91-32.58,74.76c-1.93-1.92.91-67.2,4.27-81.44S974.35,492.88,974.35,492.88Z"/><path class="cls-28" d="M974.35,492.88s-4.07-4.09-2.81-6.46,3.26,1.55,3.57-4.63-3.78-8.1,1.08-9.45,8.37-12.9,9.38-9.22-3.25,8.47-3.81,11.47,2.2,1.77.25,6.16S974.35,492.88,974.35,492.88Z"/><rect class="cls-29" x="972.43" y="503.53" width="7.41" height="0.41" transform="translate(1810.58 1218.1) rotate(-166.73)"/><polygon class="cls-29" points="958.99 508.98 966.21 510.68 966.3 510.28 959.08 508.58 958.99 508.98"/><polygon class="cls-29" points="968.1 521.67 975.32 523.37 975.41 522.97 968.2 521.27 968.1 521.67"/><rect class="cls-29" x="959.77" y="529.35" width="7.41" height="0.41" transform="translate(1779.54 1266.27) rotate(-166.72)"/><polygon class="cls-29" points="961.38 542.62 968.6 544.32 968.69 543.93 961.48 542.23 961.38 542.62"/><path class="cls-18" d="M950,518.83s17.63,3.82,17.37,6.74a4.59,4.59,0,0,1-2.14,3.82l6.55,4.87s2.51,5.66-4.39,6.75c0,0,2.89,5-3.9,5.29,0,0,.43,4.19-2.7,4.86s-14.37-2.26-14.37-2.26-2.53-1.46-.64-5.62c0,0-2.88-3.41-.65-7.14,0,0-2-3,.46-7,0,0-2.93-7.13,2.56-10.63A18.49,18.49,0,0,1,950,518.83Z"/><path class="cls-30" d="M1193.33,663.82c32-.05,33.23,30.25,33.23,30.25l-61.2.11S1161.31,663.87,1193.33,663.82Z"/><path class="cls-31" d="M1159.05,680c14.86-1.45,16.61,15.13,16.61,15.13l-32,.06S1144.18,681.49,1159.05,680Z"/><path class="cls-32" d="M1143,680.06c14.87-1.45,16.61,15.13,16.61,15.13l-32,0S1128.17,681.52,1143,680.06Z"/><path class="cls-33" d="M1065.8,675.47c-10.91-26.86,32.55-31.51,35.44-13.79s32.67,40.55,32.67,40.55l-52,10.38S1076.72,702.33,1065.8,675.47Z"/><path class="cls-34" d="M1086.62,650.36c17.14-.81,26.07,17.57,26.07,17.57s-25.47-11.5-27.18-5.92-5.39,21.73-5.39,21.73-4.33-25-5.51-21-14,10.49-14,10.49c-.88-15,13.94-21,13.94-21S1069.48,651.17,1086.62,650.36Z"/><path class="cls-35" d="M1117.63,790.74l57.39-.1c70.22-.12,58.82-100.27,58.82-100.27l-175.37.3S1047.4,790.85,1117.63,790.74Z"/><path class="cls-22" d="M506.77,103l0,0a152.46,152.46,0,0,0,17.32,28.49c22.53,28.8,74.94,29.42,75.58-49.75.12-15-1.77-27.15-4.8-37-10.79-35.12-36-40.93-36-40.93-18.63-1-51.22,3.67-62,27.94C489.16,49.08,494.79,77.62,506.77,103Z"/><path class="cls-23" d="M506.77,103l0,0s2.69.71,12.33-18.85c1.93-3.92,3.43-1.12,4.27-2.85l15.41-6s-15.3-25.47,4.64-32.58c20.33-7.25,51.45,2.07,51.45,2.07,2.19-63.48-36-40.93-36-40.93-18.63-1-51.22,3.67-62,27.94C489.16,49.08,494.79,77.62,506.77,103Z"/><path class="cls-22" d="M526.51,69.52c-1.16-5.29-11.62-9.83-16,1.55S520.93,94.49,524.84,92,528.42,78.28,526.51,69.52Z"/><path class="cls-11" d="M309.6,266.55,269,196.8s21.17-8.12,28.14-10.52,23.67-26.57,41.77-38.18c0,0-69.11-11.42-77.26-14.89l7.2-43.47s55.64,17.9,86,15.38,57.6,6.56,55.65,29.6-63.11,81.95-75.9,94.68C334.6,229.4,318.57,245.25,309.6,266.55Z"/><path class="cls-36" d="M414.09,118.87a68,68,0,0,1-.73,10.13,71,71,0,0,1-7.09,22.1A79.67,79.67,0,0,1,399,162.74h0c-17.91,23.79-50,39.67-86.66,39.74-37.15.06-69.7-16.16-87.54-40.45a75.58,75.58,0,0,1-10-18.3,69.78,69.78,0,0,1-4.32-19.35c-.14-1.71-.2-3.43-.2-5.16a69.48,69.48,0,0,1,2.95-20.09,73.12,73.12,0,0,1,6.91-15.86C236.45,55.15,271.45,35.7,312,35.63c39.68-.07,74.08,18.43,91,45.48a75.5,75.5,0,0,1,5.77,11.15,70.26,70.26,0,0,1,5,19.73A65.34,65.34,0,0,1,414.09,118.87Z"/><path class="cls-37" d="M408.76,92.26A65.18,65.18,0,0,1,390,91.1c-15.19-3.4-20.11-4.14-38.72-4.23s-28.43-2.77-39.21.07-16.64,4.67-31.84,5.74-25-4.44-41.17.07c-11.47,3.21-21.23,5.39-25.9,6.38a73.12,73.12,0,0,1,6.91-15.86c9.82-4.44,26.22-10.91,34.16-8.6C266,78.08,275.34,72.58,291,70.89s35.76-3.29,44.59-.07,32.34-.75,45.1,4.61c5.87,2.47,14.44,4.16,22.28,5.68A75.5,75.5,0,0,1,408.76,92.26Z"/><path class="cls-37" d="M414.09,118.87a68,68,0,0,1-.73,10.13c-7.09-.22-14.3-.35-19.83-.17-15.19.51-26,3.47-33.31,3.48s-27-3.88-34.8-4.35-29.89.54-38.71.55l-32.35.06c-12.74,0-27.93,1-27.93,1s-8.66-2.76-16-5.22c-.14-1.71-.2-3.43-.2-5.16a66.51,66.51,0,0,1,.5-8.38c7.95,0,21.39.51,34.27.1,16.66-.51,26,.46,42.63-.07s34.79-5,50-.08,24,8.56,32.86,8.16c6.45-.29,28.05-6.12,43.24-7A65.34,65.34,0,0,1,414.09,118.87Z"/><path class="cls-37" d="M406.27,151.1A79.67,79.67,0,0,1,399,162.74h0c-21.05,3.84-31.34,6.8-42.6,11.23s-32.56,6.44-35.88,6.44-42-1.4-42-1.4a128.84,128.84,0,0,0-21.58-7.31c-7.66-1.74-22-5.18-32.11-9.67a75.58,75.58,0,0,1-10-18.3c17.45,6.25,56.07,16.57,62.67,16.17,8.34-.51,29.41,1.91,47.55,1.88s29.88-2,39.18-4.48,5.41-8.52,23.51-6.91C394.1,151,400.58,151.14,406.27,151.1Z"/><path class="cls-38" d="M271.88,1106.72c10.26,3.06,13.37,20.5,22.1,25.61s51.31,8.64,52.83-4.7-17.9-25.26-26.64-31.92-31-30.39-35-39.1c0,0-2.34,5.18-10.48,4.53-10.53-.83-13-3.25-13-3.25-1.67,10.51-3.19,17.66-4.22,21.67C253.9,1093.41,261.61,1103.66,271.88,1106.72Z"/><path class="cls-38" d="M119.38,1110.26c10.27,3.06,13.38,20.5,22.11,25.62s51.31,8.63,52.82-4.71-17.9-25.26-26.63-31.91-31-30.39-35-39.11c0,0-2.34,5.18-10.47,4.54-10.54-.84-13-3.25-13-3.25-1.66,10.5-3.19,17.65-4.22,21.66C101.41,1097,109.12,1107.2,119.38,1110.26Z"/><path class="cls-24" d="M150.6,441.19s-29,37.84-36.81,82.69-7.28,193.44-7.59,215.6-5,73.35-4.36,120.95c.61,41.94-1.47,213-1.47,213l47.87-.83S171.1,896,173.64,878.44s10.88-82.6,11.9-89.82,55-202.36,54.93-234.69S220.6,388.33,150.6,441.19Z"/><path class="cls-24" d="M295.67,457.45c1.87,10.3,35.63,189,38.21,212.05,2.87,25.72,8.14,56.73,7,67.39-2.54,24.75-4.67,49.07-4.67,49.07L301,1068.57l-47.61-.82s-7-160.54-6.08-194.64,14.14-93.41,10.49-108.29-57.29-183.63-57.29-183.63S154.63,389.76,295.67,457.45Z"/><path class="cls-11" d="M293.36,439.18c1.8,12.24,9.81,58.42,9.81,58.42-80.79,26.13-177-14-177-14,1.61-8.88,23.94-71.25,27.16-77.7s8-24.65,3.14-47.09c-1.28-5.94-5.35-18.7-12.42-35.31-3.1-7.28-5.32-12.59-8.6-20.6h0c-14-34.07-27.73-70.88-25.16-77.56,4.54-11.83,26.84-17.24,37.59-19.15s49.43-16.48,49.43-16.48l41.25-.07S287.33,197.54,292,202c9.49,9.07,17.56,57.15,17.56,57.15,11.87,33.3-3.55,69.5-6.15,78-4.9,16-8.17,36.54-9.35,47S292.44,432.94,293.36,439.18Z"/><path class="cls-5" d="M210.69,18.53c14.78-1.64,50.55,8.51,55.21,63.06s-8.46,82-20.55,87.93-45.7-3.42-60.79-29.73S150.81,52.22,172,35,210.69,18.53,210.69,18.53Z"/><path class="cls-39" d="M249.42,72s13,9.25,17.43,21.54c0,0,9.68-69-49.15-74.54-44.77-4.24-59.62,32.47-55.75,56S177,125.91,177,125.91s4.22-13.92,12.19-14.32S248,81.09,249.42,72Z"/><path class="cls-5" d="M220.71,219c-25.26,0-31-26.44-31-26.44S195.15,156.8,181,133s57.41,38.24,57.41,38.24-.06,5.82.32,12.8c.4,7.44,1.51,14.33,3.46,18.7C242.15,202.73,246,219,220.71,219Z"/><path class="cls-5" d="M195,97.74c-2.71-2.62-15.33-6.94-15.58,9.16s18.06,27.92,19.65,16.63S199.52,102.13,195,97.74Z"/><path class="cls-13" d="M238.69,184c-.87-.25-1.84-.54-2.89-.89-23.53-7.88-34.81-25-34.81-25,21.53,14.9,37.49,13,37.49,13S238.31,177.05,238.69,184Z"/><path class="cls-24" d="M145.93,328.12s38.41-22,54.08-47.91l91-6.31,19.52,40.17s-14.1,63.3-7.37,183.53c3.28,58.56-177-14-177-14S154,395.64,145.93,328.12Z"/><path class="cls-24" d="M200,280.21S181.87,224,157.32,203.73c0,0,6.47-6.58,13-4.25,0,0,18.86,10.29,49.75,79.34S200,280.21,200,280.21Z"/><path class="cls-24" d="M291,273.9s-6.78-52.59-16.41-77.4l-7.71-1.81s11.64,60.22,10.47,80.16S291,273.9,291,273.9Z"/><path class="cls-40" d="M169.79,104.42s47.31-20.25,97.6-16.51c0,0,8-85.43-72.75-68.31C194.64,19.6,137.55,31,169.79,104.42Z"/><path class="cls-40" d="M208,92.81s41.62-21.7,83.72-17.46-24.32,12.56-24.32,12.56S231,89,208,92.81Z"/><path class="cls-5" d="M331.21,37.47a38.29,38.29,0,0,1,34.39-1.65c21.48,9.45,24.25,21.55,21.16,25.27S330.42,49,331.21,37.47Z"/><path class="cls-5" d="M105.83,486s4,2.47,7.82,2c6.63-.73,13.32-8.25,21-2.84s-3.58,33-8.45,36.57-17.51-.67-32.13-13.81S105.83,486,105.83,486Z"/><path class="cls-5" d="M131.81,483.69a293.54,293.54,0,0,1,29.09,8c13.27,4.44,27.81,11.95,28,14.8.17,3.17-14-2.57-27.44-6.14-12.39-3.28-10.52-.67-10.52-.67s-.49-.78,12.29,5.28c13.75,6.52,27.15,14.5,26.93,17.89-.11,1.65-1.07,2.24-6.47.64,2.9,1.55,2.86,2.52,2.3,3.71-2.93,6.2-24.69-.41-33.34-3,6.63,2.05,11.26,4.23,6.84,6.92-5.06,3.08-35.39-7.57-46.64-10.4C100.55,517.59,131.81,483.69,131.81,483.69Z"/><path class="cls-11" d="M162.4,214.32s-41-10.59-59.66,12.47c-24.27,30-29.43,39.72-36.51,55-6.69,14.47-28.79,52.82-31.05,56.78S-4.33,386.8.42,407.59s92,104.36,90.13,108.1,24.72-28.32,24.72-28.32-29.65-41.79-34.33-51c-7.59-14.94-27.22-34.47-18.09-47.44,10.72-15.23,44.82-67.24,51.26-74.42S184.28,232.5,162.4,214.32Z"/><path class="cls-25" d="M206.74,321.87l18.91-.33L223.78,343l20.67-.36,1.87-21.44,19-.34L260,382.13l-19,.34,2.16-24.8-20.67.36-2.16,24.8-18.92.33Z"/><path class="cls-41" d="M1119,509.45l7.24.5v8.28l7.9.55v-8.27l7.27.5v23.66l-7.26-.51v-9.57l-7.9-.55v9.57l-7.23-.51Z"/><path class="cls-41" d="M1133.82,717.24l7.2-.12v8.31l7.88-.14V717l7.24-.12V740.6l-7.24.13v-9.61l-7.88.14v9.6l-7.2.13Z"/></g></g></svg>