<svg xmlns="http://www.w3.org/2000/svg" viewBox="0 0 276.72 176.62"><defs><style>.cls-1{fill:#ee5700;}.cls-2{fill:#ebebed;}.cls-3{fill:#848489;}.cls-4{fill:#313444;}.cls-5{fill:#fff;}.cls-6{fill:#ffce00;}.cls-7{fill:#232321;}</style></defs><title>Asset 1</title><g id="Layer_2" data-name="Layer 2"><g id="OBJECTS"><polygon class="cls-1" points="26.81 105.3 11.37 105.3 12.45 101.71 14.31 95.57 15.28 92.36 17.13 86.22 18.19 82.72 19.99 82.72 21.05 86.22 22.9 92.36 23.87 95.57 25.73 101.71 26.81 105.3"/><rect class="cls-1" x="7.94" y="104.92" width="22.31" height="2.94"/><polygon class="cls-2" points="22.9 92.36 15.28 92.36 17.13 86.22 21.05 86.22 22.9 92.36"/><polygon class="cls-2" points="25.73 101.71 12.45 101.71 14.31 95.57 23.87 95.57 25.73 101.71"/><polygon class="cls-1" points="264.99 105.3 249.55 105.3 250.63 101.71 252.49 95.57 253.46 92.36 255.31 86.22 256.37 82.72 258.17 82.72 259.23 86.22 261.08 92.36 262.05 95.57 263.91 101.71 264.99 105.3"/><rect class="cls-1" x="246.12" y="104.92" width="22.31" height="2.94"/><polygon class="cls-2" points="261.08 92.36 253.46 92.36 255.31 86.22 259.23 86.22 261.08 92.36"/><polygon class="cls-2" points="263.91 101.71 250.63 101.71 252.49 95.57 262.05 95.57 263.91 101.71"/><rect class="cls-3" x="63.28" y="9.9" width="7.81" height="96.82"/><rect class="cls-3" x="200.7" y="9.9" width="7.81" height="96.82"/><rect class="cls-4" x="57.65" y="103.46" width="19.07" height="4.43"/><rect class="cls-4" x="195.07" y="103.46" width="19.07" height="4.43"/><rect class="cls-1" x="50.82" y="9.9" width="170.16" height="21.21"/><rect class="cls-1" x="50.82" y="44.04" width="170.16" height="21.21"/><polygon class="cls-5" points="195.07 9.9 200.96 20.51 206.83 31.11 219.76 31.11 213.88 20.51 208 9.9 195.07 9.9"/><polygon class="cls-5" points="196.49 44.04 202.31 54.65 208.12 65.25 220.88 65.25 215.07 54.65 209.25 44.04 196.49 44.04"/><polygon class="cls-5" points="156.79 9.9 163.39 20.51 169.98 31.11 184.5 31.11 177.9 20.51 171.3 9.9 156.79 9.9"/><polygon class="cls-5" points="160.2 44.04 166.25 54.65 172.31 65.25 185.62 65.25 179.56 54.65 173.5 44.04 160.2 44.04"/><polygon class="cls-5" points="123.07 9.9 129.3 20.51 135.52 31.11 149.23 31.11 143.01 20.51 136.77 9.9 123.07 9.9"/><polygon class="cls-5" points="126.33 44.04 132.06 54.65 137.78 65.25 150.36 65.25 144.64 54.65 138.91 44.04 126.33 44.04"/><polygon class="cls-5" points="89.68 9.9 95.47 20.51 101.24 31.11 113.97 31.11 108.19 20.51 102.4 9.9 89.68 9.9"/><polygon class="cls-5" points="89.81 44.04 95.83 54.65 101.86 65.25 115.09 65.25 109.06 54.65 103.03 44.04 89.81 44.04"/><polygon class="cls-5" points="54.75 44.04 60.77 54.65 66.8 65.25 80.03 65.25 74 54.65 67.97 44.04 54.75 44.04"/><polygon class="cls-5" points="55.42 9.9 60.96 20.51 66.5 31.11 78.7 31.11 73.16 20.51 67.61 9.9 55.42 9.9"/><path class="cls-6" d="M174.8,59,141.6,3.51a7.17,7.17,0,0,0-12.33,0L96.08,59a7.19,7.19,0,0,0,6.17,10.88h66.38A7.19,7.19,0,0,0,174.8,59Z"/><path class="cls-7" d="M168.06,66.36H102.81A4.47,4.47,0,0,1,99,59.6L131.6,5.09a4.46,4.46,0,0,1,7.66,0L171.89,59.6a4.47,4.47,0,0,1-3.83,6.76ZM135.43,5.59a1.77,1.77,0,0,0-1.54.87L101.27,61a1.81,1.81,0,0,0,1.54,2.73h65.25a1.78,1.78,0,0,0,1.56-.92,1.76,1.76,0,0,0,0-1.81L137,6.46A1.77,1.77,0,0,0,135.43,5.59Z"/><path class="cls-7" d="M135.13,16.88a3.47,3.47,0,0,0-3.06,3.68l1.5,25.66a1.87,1.87,0,0,0,3.73,0l1.51-25.81A3.37,3.37,0,0,0,135.13,16.88Z"/><path class="cls-7" d="M138.81,54.65a3.38,3.38,0,1,1-3.38-3.38A3.38,3.38,0,0,1,138.81,54.65Z"/><path d="M23.75,149.56H11.17v4.37H22.24v8.4H11.17v5H23.75v8.9H0V140.65H23.75Z"/><path d="M44.57,140.65c9,0,13.53,5.13,13.53,11.67a10.49,10.49,0,0,1-7.69,10.32l7.74,13.63H45.88l-6.69-12.78h0v12.78H28V140.65Zm-1,9.36H39.14v6h4.42c2.12,0,3.22-.91,3.22-3C46.78,151.22,45.68,150,43.56,150Z"/><path d="M78.27,140.65c9,0,13.54,5.13,13.54,11.67a10.5,10.5,0,0,1-7.7,10.32l7.75,13.63H79.58l-6.69-12.78h0v12.78H61.67V140.65Zm-1,9.36H72.84v6h4.43c2.11,0,3.22-.91,3.22-3C80.49,151.22,79.38,150,77.27,150Z"/><path d="M112.73,176.62a18,18,0,0,1-18.36-18.31c0-10.72,8.25-18.26,18.36-18.26a18.29,18.29,0,0,1,0,36.57Zm0-10.41c4.48,0,6.94-3.17,6.94-7.9s-2.46-7.95-6.94-7.95-7,3.12-7,7.95S108.15,166.21,112.73,166.21Z"/><path d="M151.61,140.65c9,0,13.54,5.13,13.54,11.67a10.5,10.5,0,0,1-7.7,10.32l7.75,13.63H152.92l-6.69-12.78h0v12.78H135V140.65Zm-1,9.36h-4.43v6h4.43c2.11,0,3.22-.91,3.22-3C153.83,151.22,152.72,150,150.61,150Z"/><path d="M193.11,170.74H177.37v-9.31l15-21.38h12v21H208v9.66h-3.62v5.53H193.11Zm.91-9.66v-8.3l-5.43,8.3Z"/><path d="M226.87,138.69c10.61,0,15.09,7.65,15.09,18.66s-4.48,18.72-15.09,18.72-15.1-7.65-15.1-18.72S216.2,138.69,226.87,138.69Zm0,10.56c-3.68,0-4.13,3.53-4.13,8.1s.45,8.15,4.13,8.15,4.07-3.52,4.07-8.15S230.49,149.25,226.87,149.25Z"/><path d="M261.83,170.74H246.08v-9.31l15-21.38h12v21h3.62v9.66H273.1v5.53H261.83Zm.9-9.66v-8.3l-5.43,8.3Z"/></g></g></svg>